<?xml version="1.0" encoding="UTF-8" standalone="no"?>
<svg
   xmlns:dc="http://purl.org/dc/elements/1.1/"
   xmlns:cc="http://creativecommons.org/ns#"
   xmlns:rdf="http://www.w3.org/1999/02/22-rdf-syntax-ns#"
   xmlns:svg="http://www.w3.org/2000/svg"
   xmlns="http://www.w3.org/2000/svg"
   viewBox="0 0 1466.6667 1066.6667"
   height="1066.6667"
   width="1466.6667"
   xml:space="preserve"
   id="svg2"
   version="1.1"><metadata
     id="metadata8"><rdf:RDF><cc:Work
         rdf:about=""><dc:format>image/svg+xml</dc:format><dc:type
           rdf:resource="http://purl.org/dc/dcmitype/StillImage" /></cc:Work></rdf:RDF></metadata><defs
     id="defs6" /><g
     transform="matrix(1.3333333,0,0,-1.3333333,0,1066.6667)"
     id="g10"><g
       transform="scale(0.1)"
       id="g12"><path
         id="path14"
         style="fill:#ffffff;fill-opacity:1;fill-rule:nonzero;stroke:none"
         d="M 0,0 H 11000 V 8000 H 0 Z" /><path
         id="path16"
         style="fill:#f1f2f2;fill-opacity:1;fill-rule:nonzero;stroke:none"
         d="m 5039.63,1738.82 c -281.92,-0.84 -563.84,-7.62 -845.27,-38.92 -106.11,-11.8 -210,-37.76 -316.35,-48.23 -212.44,-20.92 -421.07,-59.94 -634.26,-77.94 -171.68,-14.49 -344.08,-23.04 -515.26,-41.43 -160.49,-17.24 -338.16,-13.27 -497.42,15.22 -117.9,21.08 -236.33,32.96 -352.25,66.83 -129.67,37.89 -270.55,64.97 -405.66,64 -192.65,-1.4 -380.28,-1.55 -564.648,-68.46 C 843.789,1586.42 764.555,1547.81 715.406,1498.53 602.898,1385.71 587.672,1104.21 700.012,987.199 889.219,790.262 1293.06,713 1558.28,709.352 c 290.63,-4 572.96,17.57 864.01,30.257 270.45,11.793 540.23,28.563 811.13,27.973 553.28,-1.203 1106.63,0 1658.92,36.957 518.89,34.731 1039.08,22.801 1559.1,22.801 533.26,0 1062.91,-4.192 1592.32,-75.059 230.67,-30.879 465.67,-41.691 697.5,-63.32 207.63,-19.379 407.15,0.379 613.95,18.289 173.64,15.031 346.15,59.629 503.9,135.02 124.87,59.671 347.49,245.07 385.79,387.52 107.4,399.34 -1513.01,389.74 -1761.79,388.84 -278.32,-1 -558.84,-10.15 -836.94,0.46 -116.98,4.46 -232.23,27.33 -346.4,52.37 -113.73,24.97 -228.31,18.62 -343.63,29.11 -480.92,43.73 -962.91,37.34 -1445.36,37.34 -156.99,0 -314.07,1.38 -471.15,0.91" /><path
         id="path18"
         style="fill:#9ea6ad;fill-opacity:1;fill-rule:nonzero;stroke:none"
         d="m 1395.43,3344.22 -35.05,-813.18 102.77,-1382.69 153.79,-10.93 186.85,1255.81 258.49,1062.66 -666.85,-111.67" /><path
         id="path20"
         style="fill:#1a3151;fill-opacity:1;fill-rule:nonzero;stroke:none"
         d="m 1611.45,1072.64 -172.22,-71.34 -77.25,89.06 89.06,77.25 166.31,-11.82 -5.9,-83.15" /><path
         id="path22"
         style="fill:#9ea6ad;fill-opacity:1;fill-rule:nonzero;stroke:none"
         d="m 2484.1,3631.97 33.75,-614.67 -100.14,-1827.65 -153.99,-7.7 -230.79,1198.7 -203.55,1314.54 654.72,-63.22" /><path
         id="path24"
         style="fill:#1a3151;fill-opacity:1;fill-rule:nonzero;stroke:none"
         d="m 2267.85,1117.07 170.68,-74.94 79.1,87.42 -87.42,79.1 -166.52,-8.33 4.16,-83.25" /><path
         id="path26"
         style="fill:#145566;fill-opacity:1;fill-rule:nonzero;stroke:none"
         d="m 1355.14,5391.34 465.18,130.97 c 0,0 268.34,16.46 553.15,-579.19 158.46,-331.39 281.65,-874.92 359.76,-1291.98 -1.09,-61.56 -21.84,-333.93 -304.23,-336.13 -484.92,-3.79 -749.06,29.8 -948.17,-43.07 -168.67,-67.71 -194.68,175.88 -206.59,363.13 l -26.61,581.08 107.51,1175.19" /><path
         id="path28"
         style="fill:#aa6755;fill-opacity:1;fill-rule:nonzero;stroke:none"
         d="m 1346.78,5996.56 c 114.96,46.55 233.87,90.94 357.42,87.52 27.06,-0.75 56.71,-5.11 74.74,-25.31 6.98,-7.82 11.6,-17.43 15.98,-26.96 49.16,-107.03 115.57,-266.78 59.24,-382.6 -10.74,-22.08 -27,-40.92 -45.17,-57.06 -24.28,-21.57 -52.39,-38.2 -82.46,-49.61 11.15,-26.79 24.73,-52.57 40.53,-76.91 -20.35,-45.85 -147.05,-72.38 -177.31,-36.86 -7.11,33.97 -14.22,67.94 -21.34,101.92 -16.58,3.64 -32.87,8.72 -48.52,15.61 -60.58,26.67 -105.72,75.07 -136.89,132.47 -33.95,62.52 -76.58,120.19 -108.79,184.31 -11.73,23.36 -22.45,50.46 -13.26,74.94 9.78,26.05 38.2,39.16 63.97,49.66 7.27,2.96 14.56,5.93 21.86,8.88" /><path
         id="path30"
         style="fill:#1a3151;fill-opacity:1;fill-rule:nonzero;stroke:none"
         d="m 1755.1,5999.75 c -65.44,27.96 -156.76,29.31 -211.58,15.89 -165.73,-40.56 -206.33,-174.19 -189.17,-329.98 -56.17,50.93 -155.43,110.14 -173.47,184.85 -14.76,61.15 -20.49,146.98 5.13,206.29 23.97,55.49 102.26,97 146.69,134.33 41.87,35.18 83.74,70.37 125.61,105.55 8.71,7.32 17.67,14.79 28.4,18.58 12.68,4.48 26.57,3.39 39.97,2.25 114.71,-9.8 229.41,-19.59 344.12,-29.39 22.03,-1.88 47.44,-5.78 58.66,-24.83 6.83,-11.6 6.39,-25.91 5.75,-39.34 -2.82,-59.17 -16.89,-121.53 -13.04,-180.33 -1.03,-34.71 8.09,-210.19 -54.72,-200.4 -22.29,25.59 -30.86,60.31 -49.64,88.58 -13.87,20.89 -36.16,36.61 -62.71,47.95" /><path
         id="path32"
         style="fill:#145566;fill-opacity:1;fill-rule:nonzero;stroke:none"
         d="m 1820.32,5522.31 184.13,-23.64 752.98,-561.71 75.45,-214.34 -220.26,-556.57 -113.89,171.06 66.27,394.97 -230.06,109.85 -378.5,570.29 -136.12,110.09" /><path
         id="path34"
         style="fill:#3ababa;fill-opacity:1;fill-rule:nonzero;stroke:none"
         d="M 6597.21,1329.44 2638.28,981.852 2177.93,6218.89 l 3958.93,347.6 460.35,-5237.05" /><path
         id="path36"
         style="fill:#fcfcfc;fill-opacity:1;fill-rule:nonzero;stroke:none"
         d="M 6377.77,1536.9 2818.16,1224.36 2392.25,6069.62 5951.85,6382.16 6377.77,1536.9" /><path
         id="path38"
         style="fill:#33a3a3;fill-opacity:1;fill-rule:nonzero;stroke:none"
         d="m 3399.08,6158.02 -2.25,25.6 1545.95,135.73 2.25,-25.59 -1545.95,-135.74" /><path
         id="path40"
         style="fill:#dddddd;fill-opacity:1;fill-rule:nonzero;stroke:none"
         d="m 3409.48,6039.76 -10.4,118.26 1545.95,135.74 10.4,-118.26 -1545.95,-135.74" /><path
         id="path42"
         style="fill:#e8ebed;fill-opacity:1;fill-rule:nonzero;stroke:none"
         d="m 4335.76,6698.22 -407.3,-35.75 c -41.64,-3.66 -78.67,27.11 -82.3,68.39 -3.63,41.27 27.47,78.03 69.1,81.68 l 407.31,35.77 c 41.63,3.65 78.67,-27.12 82.29,-68.4 3.64,-41.27 -27.46,-78.03 -69.1,-81.69 z m 251.9,28.47 -23.98,-2.11 -1.41,16.03 c -13.28,151.04 -165.91,261.02 -340.91,245.65 l -230.5,-20.23 c -175.01,-15.37 -306.11,-150.27 -292.83,-301.31 l 1.4,-16.02 -23.98,-2.11 c -175,-15.37 -306.11,-150.26 -292.83,-301.29 l 26.86,-305.53 1545.94,135.73 -26.85,305.53 c -13.28,151.04 -165.9,261.02 -340.91,245.66" /><path
         id="path44"
         style="fill:#c5cacc;fill-opacity:1;fill-rule:nonzero;stroke:none"
         d="m 3051.11,3739.92 c -13.83,0 -26.07,10.87 -27.28,24.69 -15.19,172.69 -30.36,345.38 -45.54,518.06 -1.29,14.62 10.13,28.08 24.85,29.37 174.2,15.3 348.41,30.59 522.62,45.89 0.77,0.07 1.54,0.1 2.3,0.1 13.83,0 26.07,-10.87 27.29,-24.69 15.17,-172.69 30.35,-345.38 45.53,-518.07 0.71,-7.99 -1.72,-14.32 -5.76,-19.02 l -0.46,-0.58 -0.85,-0.93 c -3.97,-4.72 -9.79,-8.14 -17.77,-8.84 -174.21,-15.3 -348.42,-30.59 -522.62,-45.88 -0.78,-0.07 -1.55,-0.1 -2.31,-0.1 m 452.17,561.66 c -156.06,-13.7 -312.12,-27.41 -468.18,-41.11 13.6,-154.7 27.19,-309.4 40.79,-464.1 156.06,13.7 312.12,27.4 468.18,41.1 -13.6,154.7 -27.19,309.4 -40.79,464.11" /><path
         id="path46"
         style="fill:#c5cacc;fill-opacity:1;fill-rule:nonzero;stroke:none"
         d="m 3135.32,2782.03 c -13.83,0 -26.08,10.87 -27.29,24.7 -15.18,172.69 -30.36,345.37 -45.54,518.06 -1.29,14.62 10.13,28.08 24.84,29.37 174.21,15.3 348.42,30.6 522.63,45.89 0.77,0.07 1.54,0.1 2.31,0.1 13.83,0 26.06,-10.87 27.28,-24.69 15.17,-172.69 30.36,-345.37 45.53,-518.07 0.71,-7.99 -1.71,-14.32 -5.77,-19.02 l -0.45,-0.58 -0.85,-0.94 c -3.97,-4.71 -9.79,-8.13 -17.78,-8.83 -174.2,-15.29 -348.4,-30.59 -522.61,-45.89 -0.77,-0.07 -1.54,-0.1 -2.3,-0.1 m 452.15,561.66 c -156.05,-13.7 -312.11,-27.4 -468.17,-41.1 13.59,-154.7 27.19,-309.4 40.8,-464.1 156.06,13.71 312.11,27.41 468.17,41.11 -13.59,154.7 -27.2,309.39 -40.8,464.09" /><path
         id="path48"
         style="fill:#c5cacc;fill-opacity:1;fill-rule:nonzero;stroke:none"
         d="m 3219.5,1824.16 c -13.82,0 -26.06,10.88 -27.27,24.69 -15.19,172.69 -30.36,345.38 -45.55,518.06 -1.28,14.62 10.14,28.08 24.85,29.37 174.21,15.3 348.42,30.6 522.62,45.9 0.78,0.07 1.54,0.1 2.3,0.1 13.83,0 26.08,-10.87 27.29,-24.7 15.18,-172.69 30.36,-345.38 45.54,-518.07 0.7,-7.99 -1.71,-14.31 -5.76,-19.02 l -0.46,-0.58 -0.85,-0.93 c -3.96,-4.72 -9.78,-8.14 -17.78,-8.83 -174.2,-15.3 -348.41,-30.6 -522.61,-45.89 -0.78,-0.07 -1.55,-0.1 -2.32,-0.1 m 452.18,561.66 c -156.06,-13.71 -312.12,-27.4 -468.18,-41.1 13.6,-154.71 27.19,-309.41 40.8,-464.11 156.06,13.71 312.12,27.41 468.17,41.11 -13.6,154.7 -27.19,309.39 -40.79,464.1" /><path
         id="path50"
         style="fill:#3ababa;fill-opacity:1;fill-rule:nonzero;stroke:none"
         d="m 3196.39,4131.48 116.62,50.24 77.2,-113.21 537.85,460.52 67.89,-7.37 -619.64,-601.03 -179.92,210.85" /><path
         id="path52"
         style="fill:#3ababa;fill-opacity:1;fill-rule:nonzero;stroke:none"
         d="m 3239.17,3145.5 116.63,50.23 77.2,-113.21 537.84,460.53 67.9,-7.38 -619.64,-601.02 -179.93,210.85" /><path
         id="path54"
         style="fill:#3ababa;fill-opacity:1;fill-rule:nonzero;stroke:none"
         d="m 3307.97,2237.93 116.63,50.23 77.2,-113.21 537.85,460.53 67.89,-7.37 -619.64,-601.03 -179.93,210.85" /><path
         id="path56"
         style="fill:#d6dadb;fill-opacity:1;fill-rule:nonzero;stroke:none"
         d="m 4071.13,2002.15 -22.77,259.03 1843.68,161.89 22.77,-259.05 -1843.68,-161.87" /><path
         id="path58"
         style="fill:#d6dadb;fill-opacity:1;fill-rule:nonzero;stroke:none"
         d="m 3981.95,3016.69 -22.77,259.04 1843.68,161.87 22.77,-259.03 -1843.68,-161.88" /><path
         id="path60"
         style="fill:#d6dadb;fill-opacity:1;fill-rule:nonzero;stroke:none"
         d="m 3892.77,4031.23 -22.77,259.04 1843.68,161.87 22.77,-259.03 -1843.68,-161.88" /><path
         id="path62"
         style="fill:#145566;fill-opacity:1;fill-rule:nonzero;stroke:none"
         d="m 1551.92,5098.57 -65.53,-522.44 847.98,-568.06 -46.48,-151.56 -1082.82,414.19 -96.45,353.23 246.52,767.41 196.78,-292.77" /><path
         id="path64"
         style="fill:#aa6755;fill-opacity:1;fill-rule:nonzero;stroke:none"
         d="m 2297.84,3888.96 67.05,-57.81 168.78,-10.86 -1.6,93.55 -120.65,43.65 -12.39,48.85 -64.66,1.73 -36.53,-119.11" /><path
         id="path66"
         style="fill:#14263a;fill-opacity:1;fill-rule:nonzero;stroke:none"
         d="m 9661.93,1270.88 8.34,-82.12 -155.88,-98.81 -90.45,73.77 73.77,90.46 155.87,98.81 8.35,-82.11" /><path
         id="path68"
         style="fill:#145566;fill-opacity:1;fill-rule:nonzero;stroke:none"
         d="m 9667.97,3775.85 25.34,-249.39 -222.67,-1114.46 197.2,-1113.79 -159.58,-49.13 -515.95,1324.27 -28.3,404.84 69.89,838.65 634.07,-40.99" /><path
         id="path70"
         style="fill:#145566;fill-opacity:1;fill-rule:nonzero;stroke:none"
         d="m 8458.62,3690.96 -5.11,-1053.57 207.63,-1356.97 152.65,1.03 88,1253.97 200.48,1254.73 -643.65,-99.19" /><path
         id="path72"
         style="fill:#14263a;fill-opacity:1;fill-rule:nonzero;stroke:none"
         d="m 8813.34,1217.07 -164.52,-83.64 -83.09,81.98 81.98,83.09 165.07,1.11 0.56,-82.54" /><path
         id="path74"
         style="fill:#d1e7f5;fill-opacity:1;fill-rule:nonzero;stroke:none"
         d="m 8329.98,3845.57 c 110.12,341.13 121.86,699.33 153.89,1054.68 9.49,104.85 19.58,212.01 63.22,307.81 50.12,110 132.97,168.07 229.49,199.79 122.85,40.37 267.83,38.05 395.57,45.83 121.2,3.82 228.43,-451.8 352.05,-672.66 75.77,-135.36 153.84,-255.07 204.94,-402.71 49.05,-141.7 96.15,-285.9 124.69,-433.33 43.08,-222.6 153.27,-378.03 48.04,-453.75 -9.65,-3.19 -18.94,-6.36 -27.76,-9.51 -172.63,-61.84 -351.24,-107.61 -533.13,-131.62 -161.35,-21.29 -325.22,-25.18 -487.24,-9.2 -221.78,21.85 -436.65,53.18 -632.16,168.85 36.13,111.94 72.27,223.88 108.4,335.82" /><path
         id="path76"
         style="fill:#d1e7f5;fill-opacity:1;fill-rule:nonzero;stroke:none"
         d="m 7569.56,4535.66 760,227.09 257.99,514.33 142.21,-263.05 -164.03,-478.37 -831.82,-164.64 -164.35,164.64" /><path
         id="path78"
         style="fill:#ebb044;fill-opacity:1;fill-rule:nonzero;stroke:none"
         d="M 6736.97,5369.71 7277.29,5909.09 9270.08,3912.8 8729.76,3373.43 6736.97,5369.71" /><path
         id="path80"
         style="fill:#edeeef;fill-opacity:1;fill-rule:nonzero;stroke:none"
         d="m 7277.29,5909.09 -751.8,212.79 211.48,-752.17 z" /><path
         id="path82"
         style="fill:#145566;fill-opacity:1;fill-rule:nonzero;stroke:none"
         d="m 6807.56,6042.04 -282.07,79.84 79.34,-282.21 z" /><path
         id="path84"
         style="fill:#ffffff;fill-opacity:1;fill-rule:nonzero;stroke:none"
         d="m 9070.6,3175.67 401.15,400.45 c 38.44,38.36 38.48,100.62 0.13,139.05 l -201.8,197.63 -540.32,-539.37 201.79,-197.64 c 38.36,-38.43 100.62,-38.49 139.05,-0.12" /><path
         id="path86"
         style="fill:#ededef;fill-opacity:1;fill-rule:nonzero;stroke:none"
         d="m 8729.76,3373.43 540.32,539.37 -100.87,101.04 -544.51,-535.17 105.06,-105.24" /><path
         id="path88"
         style="fill:#eac1a4;fill-opacity:1;fill-rule:nonzero;stroke:none"
         d="m 9231.45,5792.79 c -69.05,208.45 -373.25,281.03 -443.96,38.77 -21.25,-72.8 -34.04,-150.03 -19.59,-224.48 14.44,-74.45 59.94,-145.88 129.38,-176.4 l 1.19,-0.49 c -2.72,-19.32 -5.43,-38.64 -8.14,-57.96 -0.58,-4.15 -1.07,-8.73 1.26,-12.22 2.66,-3.96 7.93,-5 12.66,-5.7 23.06,-3.45 46.13,-6.89 69.19,-10.33 11.43,-1.7 23.35,-3.37 34.35,0.15 24.09,7.71 34.11,36.59 35.18,61.87 0.24,6.04 0.18,12.15 0.1,18.28 136.5,46.76 233.51,232.25 188.38,368.51" /><path
         id="path90"
         style="fill:#1a3151;fill-opacity:1;fill-rule:nonzero;stroke:none"
         d="m 8860.84,6148.72 c -55.7,8.28 -103.13,-45.73 -154.53,-74.09 -42.76,-23.59 -91.23,-29.85 -135.54,-49.41 -44.31,-19.55 -87.88,-60.37 -88.81,-111.46 -44.9,23.37 -93.54,47.34 -143.86,37.64 -50.33,-9.7 -97.04,-69.77 -76.99,-119.29 17.95,-44.35 75.8,-54.79 95.05,-98.44 30.45,-69.05 -51.86,-176.28 4.31,-222.08 13.5,-11.01 31.87,-13.67 45.15,-25 16.48,-14.08 21.77,-38.26 29.11,-59.75 33.26,-97.44 131.47,-161.09 228.49,-148.07 60.32,28.27 108.42,86.65 129.97,153.49 25.98,80.56 -17.13,108.69 -24.4,184.32 -7.95,82.65 18.33,170.18 70.37,234.36 33.87,41.77 82.32,77.78 133.53,82.66 20.81,1.98 14.25,-15.38 37.67,0.73 10.06,6.91 23.77,33.05 26.62,45.58 -56.02,45.06 -102.86,157.91 -176.14,168.81" /><path
         id="path92"
         style="fill:#1a3151;fill-opacity:1;fill-rule:nonzero;stroke:none"
         d="m 9463.26,6041.55 c 28.73,-8 59.93,-6.82 87.31,-18.83 41.12,-18.03 38.62,-60.7 50.26,-97.77 12.89,-41.05 31.62,-96.15 58.69,-128.07 19.5,-23 46.82,-36.11 70.58,-53.87 23.77,-17.75 45.61,-43.95 45.11,-75.95 -0.48,-30.31 -20.86,-57.53 -23.85,-87.81 -3.63,-45.14 4.18,-68.25 -9.74,-114.39 -7.18,-23.8 -15.21,-49.01 -33.08,-65.25 -23.55,-21.39 -57.09,-20.98 -86.55,-16.06 -29.44,4.93 -59.89,13.1 -88.93,3.33 -62.99,-21.19 -51.23,-84.89 -68,-138.29 -25.51,-81.24 -119.73,-128.67 -191.8,-99.77 -61.11,24.5 -96.48,95.46 -93.72,165.5 1.39,35.07 15.34,67.76 16.36,102.86 0.98,33.85 -18.11,80.73 12.58,107.6 7.48,6.54 17.05,9.99 23.77,17.45 5.43,6.03 8.44,14.11 10.33,22.18 6.53,27.98 0.37,58.5 -16.12,79.92 -11.86,15.39 -28.84,26.64 -36.11,45.22 -8.33,21.28 -1.74,46.17 -0.33,69.69 3.41,56.85 -27.69,112.61 -75.05,134.56 -31.21,14.47 -59.33,23 -86.61,45.01 -4.15,3.35 -66.22,58.2 -67.82,46.35 2.79,20.63 14.83,38.67 27.03,55.23 20.06,27.21 42.33,53.71 70.58,70.01 91.36,52.7 95.78,-69.78 169.11,-53.67 17.68,3.89 31,20.11 46.92,29.78 30.08,18.28 67.02,11.75 97.77,-1.95 30.76,-13.7 58.94,-34 91.31,-43.01" /><path
         id="path94"
         style="fill:#eac1a4;fill-opacity:1;fill-rule:nonzero;stroke:none"
         d="m 7545.19,4428.69 90.03,19.23 112.88,-86.46 -85.27,-99.47 -85.29,69.71 -32.35,96.99" /><path
         id="path96"
         style="fill:#eac1a4;fill-opacity:1;fill-rule:nonzero;stroke:none"
         d="m 8536.87,4140.3 -60.47,-64.66 -166.64,-28.89 -8.44,93.18 115.27,56.32 7.08,49.91 64.1,8.64 49.1,-114.5" /><path
         id="path98"
         style="fill:#d1e7f5;fill-opacity:1;fill-rule:nonzero;stroke:none"
         d="m 8380.44,4258.26 760,227.09 258,514.34 142.19,-263.05 -164.02,-478.38 -831.82,-164.63 -164.35,164.63" /><path
         id="path100"
         style="fill:#1a3151;fill-opacity:1;fill-rule:nonzero;stroke:none"
         d="m 3344.8,5550.9 -525.75,-50.13 10.54,-110.54 194.11,18.5 48.56,-509.21 137.52,13.11 -48.56,509.22 194.12,18.51 -10.54,110.54" /><path
         id="path102"
         style="fill:#1a3151;fill-opacity:1;fill-rule:nonzero;stroke:none"
         d="m 3832.78,5126.63 c -25.82,-39.35 -64.85,-61.52 -117.07,-66.5 -52.23,-4.97 -94.73,9.26 -127.48,42.74 -32.77,33.48 -52.44,84.73 -59.03,153.8 -6.52,68.46 3.14,122.08 29.02,160.87 25.87,38.76 64.92,60.64 117.15,65.62 52.23,4.98 94.7,-9.11 127.45,-42.3 32.73,-33.19 52.36,-84.02 58.89,-152.49 6.53,-68.48 -3.12,-122.38 -28.93,-161.74 z m 111.27,339.12 c -28.9,45.24 -67.22,78.63 -114.94,100.15 -47.73,21.5 -102.36,29.32 -163.87,23.46 -61.51,-5.86 -113.8,-23.89 -156.91,-54.04 -43.09,-30.18 -74.69,-70.24 -94.81,-120.15 -20.13,-49.96 -27.11,-107.12 -20.97,-171.53 6.14,-64.42 23.83,-119.54 53.08,-165.34 29.27,-45.82 67.89,-79.47 115.91,-100.94 48.02,-21.48 102.78,-29.28 164.29,-23.42 61.5,5.86 113.68,23.86 156.47,54 42.81,30.13 74.1,70.45 93.87,120.95 19.78,50.47 26.6,107.93 20.47,172.35 -6.15,64.41 -23.68,119.24 -52.59,164.51" /><path
         id="path104"
         style="fill:#1a3151;fill-opacity:1;fill-rule:nonzero;stroke:none"
         d="m 4597.26,5155.62 -94.89,-9.06 -38.18,400.4 94.89,9.05 c 132.29,12.61 204.78,-47.52 217.46,-180.4 12.78,-134.05 -46.98,-207.39 -179.28,-219.99 z m 260.48,395.49 c -30.25,43.96 -70.9,75.81 -121.98,95.54 -51.07,19.72 -110.54,26.34 -178.44,19.86 l -239.37,-22.81 59.1,-619.76 239.37,22.81 c 68.47,6.54 125.91,24.46 172.3,53.77 46.39,29.3 80.13,68.39 101.25,117.25 21.1,48.86 28.55,105.79 22.35,170.78 -6.14,64.41 -24.34,118.59 -54.58,162.56" /><path
         id="path106"
         style="fill:#1a3151;fill-opacity:1;fill-rule:nonzero;stroke:none"
         d="m 5440.47,5279.93 c -25.81,-39.36 -64.84,-61.53 -117.07,-66.5 -52.23,-4.98 -94.72,9.27 -127.48,42.73 -32.76,33.48 -52.43,84.73 -59.02,153.81 -6.53,68.46 3.14,122.09 29.01,160.86 25.87,38.77 64.92,60.65 117.15,65.63 52.23,4.98 94.72,-9.12 127.45,-42.3 32.73,-33.2 52.37,-84.02 58.89,-152.49 6.53,-68.49 -3.12,-122.38 -28.93,-161.74 z m 163.86,174.61 c -6.15,64.41 -23.68,119.24 -52.58,164.5 -28.91,45.24 -67.23,78.64 -114.95,100.15 -47.73,21.5 -102.36,29.34 -163.87,23.46 -61.5,-5.86 -113.8,-23.89 -156.9,-54.04 -43.1,-30.17 -74.69,-70.23 -94.82,-120.15 -20.13,-49.94 -27.11,-107.12 -20.97,-171.53 6.14,-64.42 23.83,-119.53 53.09,-165.33 29.26,-45.82 67.88,-79.48 115.9,-100.95 48.03,-21.48 102.78,-29.28 164.3,-23.42 61.5,5.87 113.67,23.86 156.47,54.02 42.8,30.12 74.09,70.43 93.87,120.93 19.77,50.49 26.6,107.94 20.46,172.36" /></g></g></svg>